<svg width="29" height="28" viewBox="0 0 29 28" fill="none" xmlns="http://www.w3.org/2000/svg">
<path d="M0 14V28H29V0H0V14Z" fill="#007ACC"/>
<path d="M6.41298 14.0931L6.40381 15.2397H10.1783V25.5953H12.8484V15.2397H16.6229V14.1153C16.6229 13.4929 16.6091 12.973 16.5907 12.9596C16.5769 12.9419 14.2799 12.9329 11.495 12.9374L6.42692 12.9508L6.4131 14.093L6.41298 14.0931Z" fill="white"/>
<path d="M23.4002 12.9182C24.1366 13.0961 24.6983 13.4115 25.2138 13.9271C25.4808 14.2027 25.8766 14.705 25.9089 14.8249C25.918 14.8605 24.6568 15.6783 23.8927 16.136C23.8651 16.1538 23.7545 16.0382 23.6302 15.8604C23.2574 15.3361 22.8662 15.1093 22.2677 15.0694C21.3886 15.0115 20.8223 15.456 20.827 16.1981C20.827 16.416 20.8592 16.5449 20.9513 16.7227C21.1446 17.1093 21.5036 17.3405 22.6314 17.8115C24.7074 18.6738 25.5958 19.2427 26.1483 20.0515C26.7651 20.9539 26.9032 22.3938 26.4842 23.4649C26.024 24.6293 24.8825 25.4205 23.2758 25.6827C22.7787 25.7671 21.6004 25.7538 21.0663 25.6605C19.9018 25.4605 18.797 24.9049 18.1157 24.1761C17.8487 23.8916 17.3285 23.1494 17.3608 23.096C17.3746 23.0783 17.4943 23.0072 17.6277 22.9316C17.7566 22.8605 18.2446 22.5893 18.7049 22.3316L19.5381 21.8649L19.713 22.1138C19.957 22.4738 20.4909 22.9671 20.8132 23.1315C21.7383 23.6027 23.0089 23.536 23.6349 22.9937C23.9019 22.7582 24.0123 22.5138 24.0123 22.1537C24.0123 21.8293 23.9709 21.6871 23.796 21.4428C23.5705 21.1316 23.1102 20.8693 21.8028 20.3228C20.3068 19.7004 19.6623 19.3138 19.0732 18.7004C18.7325 18.345 18.4102 17.776 18.2768 17.3004C18.1664 16.9049 18.1386 15.9138 18.2262 15.5138C18.5346 14.1182 19.6255 13.1449 21.1998 12.856C21.7107 12.7627 22.8983 12.7982 23.4002 12.9183V12.9182Z" fill="white"/>
</svg>
