<svg width="27" height="27" viewBox="0 0 27 27" fill="none" xmlns="http://www.w3.org/2000/svg">
<g clip-path="url(#clip0)">
<path d="M13.3477 26.9222C13.2563 26.9222 13.171 26.8825 13.0917 26.8129L12.2811 26.0279C12.1592 25.9185 12.2202 25.8788 12.2568 25.8589C12.4213 25.7695 12.4518 25.7495 12.6224 25.5906C12.6407 25.5707 12.6651 25.5807 12.6834 25.6005L13.3051 26.2067C13.3294 26.2266 13.3599 26.2266 13.3782 26.2067L15.81 23.9111C15.8344 23.8912 15.8466 23.8514 15.8466 23.8018V19.2204C15.8466 19.1706 15.8344 19.1309 15.81 19.111L13.3782 16.8253C13.3538 16.8053 13.3233 16.8053 13.3051 16.8253L10.8732 19.111C10.8489 19.1308 10.8366 19.1805 10.8366 19.2203V23.8017C10.8366 23.8415 10.8489 23.8911 10.8732 23.9111L11.5376 24.5371C11.8972 24.8352 12.1227 24.4874 12.1227 24.1396V19.6178C12.1227 19.5582 12.1531 19.4985 12.1958 19.4985H12.5066C12.5432 19.4985 12.5798 19.5482 12.5798 19.6178V24.1396C12.5798 24.9247 12.3177 25.3819 11.8606 25.3819C11.7204 25.3819 11.6107 25.3819 11.2998 25.1334L10.6599 24.5371C10.5014 24.3881 10.4039 24.1098 10.4039 23.8116V19.2302C10.4039 18.9321 10.5014 18.6538 10.6599 18.5048L13.0917 16.2091C13.2441 16.07 13.4513 16.07 13.6037 16.2091L16.0355 18.5048C16.194 18.6538 16.2915 18.9321 16.2915 19.2302V23.8116C16.2915 24.1098 16.194 24.3881 16.0355 24.5371L13.6037 26.8328C13.5244 26.8925 13.433 26.9222 13.3477 26.9222H13.3477ZM14.0973 23.7719C13.0308 23.7719 12.8114 22.9769 12.8114 22.3011C12.8114 22.2414 12.8418 22.1818 12.8845 22.1818H13.2014C13.238 22.1818 13.2685 22.2216 13.2685 22.2812C13.3172 22.8079 13.4574 23.0663 14.1035 23.0663C14.6154 23.0663 14.8349 22.8775 14.8349 22.4303C14.8349 22.1719 14.7739 21.9831 13.9755 21.8539C13.3111 21.7445 12.8967 21.5061 12.8967 20.6415C12.8967 19.8365 13.3112 19.3594 14.006 19.3594C14.7861 19.3594 15.1701 19.7967 15.2188 20.7507C15.2188 20.7806 15.2127 20.8103 15.2005 20.8402C15.1883 20.86 15.1701 20.8799 15.1518 20.8799H14.8348C14.8044 20.8799 14.7739 20.8402 14.7678 20.7905C14.6947 20.2439 14.5057 20.065 14.006 20.065C13.4452 20.065 13.3782 20.3831 13.3782 20.6215C13.3782 20.9097 13.4574 20.9992 14.2131 21.1582C14.9628 21.3172 15.3164 21.5458 15.3164 22.4004C15.3102 23.275 14.8714 23.7719 14.0973 23.7719Z" fill="#539E43"/>
<path d="M5.80228 9.00409C5.80228 8.82523 5.74132 8.65618 5.64382 8.56676L3.05962 6.14192C3.01691 6.1021 2.96818 6.08224 2.91945 6.07227H2.89504C2.84631 6.07227 2.79753 6.1021 2.75487 6.14192L0.170674 8.56676C0.0731152 8.65618 0.012207 8.82515 0.012207 9.00409L0.0183242 15.5234C0.0183242 15.6128 0.0488047 15.7022 0.0975312 15.7421C0.146311 15.7918 0.207219 15.7918 0.249934 15.7421L1.78582 14.311C1.88333 14.2215 1.94429 14.0526 1.94429 13.8737V10.8227C1.94429 10.6439 2.0052 10.4749 2.10276 10.3855L2.75487 9.76929C2.80365 9.71959 2.85849 9.69964 2.91334 9.69964C2.96818 9.69964 3.02302 9.71959 3.06574 9.76929L3.71785 10.3855C3.81541 10.4749 3.87632 10.6438 3.87632 10.8227V13.8737C3.87632 14.0526 3.93728 14.2215 4.03478 14.311L5.57067 15.7421C5.61945 15.7918 5.68036 15.7918 5.72914 15.7421C5.77792 15.7022 5.8084 15.6128 5.8084 15.5234L5.80228 9.00409Z" fill="#333333"/>
<path d="M18.2235 0.0298591C18.1748 -0.00995302 18.1138 -0.00995302 18.0711 0.0298591C18.0224 0.0795597 17.9919 0.159012 17.9919 0.248439V6.70823C17.9919 6.76782 17.9737 6.82741 17.9371 6.86722C17.9005 6.89697 17.8639 6.89697 17.8274 6.86722L17.1813 6.26101C17.134 6.21704 17.0804 6.19391 17.0259 6.19391C16.9714 6.19391 16.9178 6.21704 16.8705 6.26101L14.2863 8.69582C14.1888 8.78525 14.1278 8.95422 14.1278 9.13307V13.9927C14.1278 14.1716 14.1888 14.3406 14.2863 14.4301L16.8705 16.8649C16.9178 16.9088 16.9714 16.932 17.0259 16.932C17.0804 16.932 17.134 16.9088 17.1813 16.8649L19.7655 14.4301C19.863 14.3406 19.924 14.1717 19.924 13.9927V1.87833C19.924 1.6895 19.863 1.52062 19.7655 1.43111L18.2236 0.0298591H18.2235ZM17.9859 12.3928C17.9859 12.4425 17.9737 12.4822 17.9493 12.502L17.0655 13.3368C17.0532 13.3466 17.0396 13.3517 17.0259 13.3517C17.0122 13.3517 16.9986 13.3466 16.9863 13.3368L16.1026 12.502C16.0781 12.4822 16.066 12.4325 16.066 12.3928V10.7231C16.066 10.6734 16.0781 10.6337 16.1026 10.6139L16.9863 9.77901C16.9986 9.76919 17.0122 9.76408 17.0259 9.76408C17.0396 9.76408 17.0532 9.76919 17.0655 9.77901L17.9493 10.6139C17.9737 10.6336 17.9859 10.6834 17.9859 10.7231V12.3928Z" fill="#333333"/>
<path d="M26.8232 10.6833C26.9208 10.5939 26.9756 10.425 26.9756 10.246V9.06343C26.9756 8.88458 26.9147 8.71562 26.8232 8.62619L24.2573 6.20135C24.21 6.15739 24.1564 6.13428 24.1019 6.13428C24.0474 6.13428 23.9939 6.15739 23.9465 6.20135L21.3623 8.63608C21.2648 8.7255 21.2039 8.89447 21.2039 9.07341V13.9331C21.2039 14.1119 21.2648 14.2809 21.3623 14.3703L23.9282 16.7554C24.0258 16.8448 24.1415 16.8448 24.233 16.7554L25.7871 15.3444C25.8359 15.3046 25.8664 15.2151 25.8664 15.1257C25.8664 15.0363 25.8359 14.9469 25.7871 14.907L23.1907 12.4722C23.142 12.4226 23.1115 12.3431 23.1115 12.2536V10.7331C23.1115 10.6437 23.142 10.5543 23.1907 10.5145L24.0014 9.75916C24.0251 9.73481 24.0526 9.72189 24.0806 9.72189C24.1086 9.72189 24.1361 9.73481 24.1598 9.75916L24.9704 10.5145C25.0192 10.5642 25.0497 10.6436 25.0497 10.7331V11.9257C25.0497 12.0151 25.0801 12.1045 25.1289 12.1443C25.1777 12.194 25.2386 12.194 25.2873 12.1443L26.8232 10.6833Z" fill="#333333"/>
<path d="M24.0624 10.4551C24.0714 10.4454 24.082 10.4402 24.0928 10.4402C24.1037 10.4402 24.1143 10.4454 24.1233 10.4551L24.617 10.9222C24.6353 10.9419 24.6475 10.9718 24.6475 11.0116V11.9457C24.6475 11.9855 24.6353 12.0153 24.617 12.0352L24.1233 12.5023C24.1143 12.512 24.1037 12.5171 24.0928 12.5171C24.082 12.5171 24.0714 12.512 24.0624 12.5023L23.5687 12.0352C23.5504 12.0153 23.5382 11.9855 23.5382 11.9457V11.0116C23.5382 10.9718 23.5504 10.9419 23.5687 10.9222L24.0624 10.4551Z" fill="#539E43"/>
<mask id="mask0" mask-type="alpha" maskUnits="userSpaceOnUse" x="7" y="6" width="6" height="11">
<path d="M10.1235 6.22137C10.0761 6.17741 10.0226 6.1543 9.96807 6.1543C9.91357 6.1543 9.86002 6.17741 9.81266 6.22137L7.24676 8.63615C7.1492 8.72558 7.09436 8.89454 7.09436 9.0734V13.9133C7.09436 14.0921 7.15532 14.2611 7.24676 14.3505L9.81266 16.7655C9.86002 16.8094 9.91357 16.8325 9.96807 16.8325C10.0226 16.8325 10.0761 16.8094 10.1235 16.7655L12.6894 14.3505C12.7869 14.2611 12.8418 14.0921 12.8418 13.9133V9.07348C12.8418 8.89463 12.7808 8.72566 12.6894 8.63624L10.1235 6.22137Z" fill="white"/>
</mask>
<g mask="url(#mask0)">
<path d="M10.1235 6.22137C10.0761 6.17741 10.0226 6.1543 9.96807 6.1543C9.91357 6.1543 9.86002 6.17741 9.81266 6.22137L7.24676 8.63615C7.1492 8.72558 7.09436 8.89454 7.09436 9.0734V13.9133C7.09436 14.0921 7.15532 14.2611 7.24676 14.3505L9.81266 16.7655C9.86002 16.8094 9.91357 16.8325 9.96807 16.8325C10.0226 16.8325 10.0761 16.8094 10.1235 16.7655L12.6894 14.3505C12.7869 14.2611 12.8418 14.0921 12.8418 13.9133V9.07348C12.8418 8.89463 12.7808 8.72566 12.6894 8.63624L10.1235 6.22137Z" fill="url(#paint0_linear)"/>
<path d="M12.6956 8.63644L10.1175 6.22158C10.0922 6.20072 10.0656 6.18407 10.0382 6.17188L7.14929 14.2416C7.17322 14.2892 7.20213 14.3296 7.23467 14.3609L9.81275 16.7758C9.88589 16.8454 9.97121 16.8653 10.0504 16.8254L12.7627 8.73593C12.7444 8.6962 12.7199 8.66628 12.6956 8.63653V8.63644Z" fill="url(#paint1_linear)"/>
<path fill-rule="evenodd" clip-rule="evenodd" d="M12.7016 14.3508C12.7747 14.2812 12.8296 14.162 12.854 14.0328L10.0259 6.16188C9.95277 6.14201 9.87351 6.1519 9.80654 6.22147L7.2467 8.62653L10.0076 16.8353C10.0478 16.8246 10.0868 16.8045 10.1234 16.7757L12.7015 14.3509L12.7016 14.3508Z" fill="url(#paint2_linear)"/>
<path fill-rule="evenodd" clip-rule="evenodd" d="M12.7016 14.3507L10.1296 16.7656C10.0933 16.7958 10.0542 16.8159 10.0138 16.8252L10.0626 16.9743L12.9149 14.2812V14.2215L12.8418 14.0227C12.8296 14.1618 12.7748 14.2811 12.7016 14.3507Z" fill="url(#paint3_linear)"/>
<path fill-rule="evenodd" clip-rule="evenodd" d="M12.7016 14.3507L10.1296 16.7656C10.0933 16.7958 10.0542 16.8159 10.0138 16.8252L10.0626 16.9743L12.9149 14.2812V14.2215L12.8418 14.0227C12.8296 14.1618 12.7748 14.2811 12.7016 14.3507Z" fill="url(#paint4_linear)"/>
</g>
</g>
<defs>
<linearGradient id="paint0_linear" x1="11.0134" y1="8.0216" x2="5.95469" y2="12.8964" gradientUnits="userSpaceOnUse">
<stop stop-color="#41873F"/>
<stop offset="0.3288" stop-color="#418B3D"/>
<stop offset="0.6352" stop-color="#419637"/>
<stop offset="0.9319" stop-color="#3FA92D"/>
<stop offset="1" stop-color="#3FAE2A"/>
</linearGradient>
<linearGradient id="paint1_linear" x1="9.57859" y1="12.0605" x2="17.7898" y2="9.32457" gradientUnits="userSpaceOnUse">
<stop offset="0.1376" stop-color="#41873F"/>
<stop offset="0.4032" stop-color="#54A044"/>
<stop offset="0.7136" stop-color="#66B848"/>
<stop offset="0.9081" stop-color="#6CC04A"/>
</linearGradient>
<linearGradient id="paint2_linear" x1="7.0006" y1="11.4937" x2="12.9381" y2="11.4937" gradientUnits="userSpaceOnUse">
<stop offset="0.09192" stop-color="#6CC04A"/>
<stop offset="0.2864" stop-color="#66B848"/>
<stop offset="0.5968" stop-color="#54A044"/>
<stop offset="0.8624" stop-color="#41873F"/>
</linearGradient>
<linearGradient id="paint3_linear" x1="7.00065" y1="15.5066" x2="12.938" y2="15.5066" gradientUnits="userSpaceOnUse">
<stop offset="0.09192" stop-color="#6CC04A"/>
<stop offset="0.2864" stop-color="#66B848"/>
<stop offset="0.5968" stop-color="#54A044"/>
<stop offset="0.8624" stop-color="#41873F"/>
</linearGradient>
<linearGradient id="paint4_linear" x1="13.803" y1="7.7928" x2="10.0241" y2="19.9368" gradientUnits="userSpaceOnUse">
<stop stop-color="#41873F"/>
<stop offset="0.3288" stop-color="#418B3D"/>
<stop offset="0.6352" stop-color="#419637"/>
<stop offset="0.9319" stop-color="#3FA92D"/>
<stop offset="1" stop-color="#3FAE2A"/>
</linearGradient>
<clipPath id="clip0">
<rect width="27" height="27" fill="white"/>
</clipPath>
</defs>
</svg>
