<svg width="28" height="26" viewBox="0 0 28 26" fill="none" xmlns="http://www.w3.org/2000/svg">
<g clip-path="url(#clip0)">
<path fill-rule="evenodd" clip-rule="evenodd" d="M26.0703 10.7675C26.0451 10.7839 26.0199 10.9646 26.0199 11.0631C26.0148 11.7206 26.0098 13.4626 26.0098 14.6457C26.0098 14.6787 26.0249 14.7444 26.04 14.7444C26.1157 14.7608 26.2974 14.7772 26.4539 14.7772C26.6709 14.7772 26.797 14.6787 26.8677 14.5802C27.0493 14.2842 27.1351 13.6433 27.1351 12.9365C27.1351 11.3427 26.792 10.7345 26.2822 10.7345C26.2469 10.7181 26.1461 10.7181 26.0703 10.7675ZM27.3724 18.1134C27.3724 16.4864 27.004 15.5825 26.3378 15.5825C26.3075 15.5825 26.0955 15.5661 26.0451 15.5988C26.0299 15.6154 26.0098 15.6483 26.0098 15.6977C26.0098 16.8643 26.0047 18.7215 26.0199 19.4445C26.0299 19.7567 26.1006 20.2005 26.1864 20.3319C26.2772 20.4963 26.4841 20.529 26.6255 20.529C27.0241 20.529 27.3724 19.806 27.3724 18.1134ZM25.0408 9.8637C25.0913 9.8637 25.2426 9.91285 25.6312 9.91285C25.9997 9.91285 26.2924 9.88009 26.6507 9.88009C27.0897 9.88009 27.6953 10.3894 27.6953 12.5259C27.6953 13.5776 27.4682 14.4158 27.1705 14.8267C27.1554 14.8431 27.1554 14.8758 27.1705 14.8922C27.5944 15.2375 27.9679 16.0919 27.9679 17.7023C27.9679 19.2802 27.6651 20.2826 27.226 20.9071C26.9585 21.285 26.6255 21.4164 26.2873 21.4164C26.0299 21.4164 25.3386 21.3179 24.955 21.3509C24.9147 21.3014 24.9904 20.7098 25.0256 20.6113C25.1165 20.5948 25.1871 20.5784 25.283 20.4797C25.4193 20.3649 25.4344 20.2332 25.4546 19.5596C25.4647 18.9844 25.4647 16.9464 25.4647 15.5004C25.4647 13.5119 25.4698 12.1643 25.4647 11.507C25.4597 10.9977 25.4042 10.8332 25.2932 10.7345C25.2073 10.6854 25.066 10.6195 24.9499 10.5703C24.9247 10.4881 25.0105 9.92924 25.0408 9.8637ZM22.1288 20.0854C22.25 20.3974 22.4872 20.5289 22.6992 20.5289C22.9717 20.5289 23.2442 20.3649 23.5066 19.5922C23.7741 18.8036 23.9608 17.5875 23.9608 15.6483C23.9608 13.7911 23.7438 12.2792 23.2997 11.392C23.0474 10.8823 22.7244 10.669 22.3509 10.669C22.2399 10.669 22.1339 10.6854 22.0684 10.7839C22.0532 10.8168 22.0179 10.9646 22.0179 11.0467C22.0078 11.3754 22.0078 13.9062 22.0078 15.3853C22.0078 16.9136 22.0078 19.0501 22.0179 19.2965C22.0179 19.5432 22.0532 19.9211 22.1289 20.0854H22.1288ZM20.9832 9.86353C21.0792 9.86353 21.4475 9.91285 21.6242 9.91285C21.9422 9.91285 22.1693 9.8637 22.7698 9.8637C23.2744 9.8637 23.6984 10.3073 24.0012 11.1454C24.3695 12.1807 24.5614 13.6106 24.5614 15.3524C24.5614 17.8339 24.2131 19.2638 23.8649 20.0854C23.5168 20.9235 23.0625 21.4164 22.4166 21.4164C22.0734 21.4164 21.4829 21.3837 20.9934 21.3671H20.9883C20.9631 21.2193 21.0287 20.6441 21.0691 20.6277C21.2003 20.5784 21.2356 20.5618 21.3013 20.4799C21.4072 20.3483 21.4274 20.1675 21.4426 19.5596C21.4577 18.4255 21.4526 17.0616 21.4526 15.5167C21.4526 14.4158 21.4577 12.2628 21.4475 11.5726C21.4325 10.9976 21.3568 10.8496 21.2053 10.7509C21.1296 10.7018 21.0287 10.6359 20.8874 10.5867C20.8672 10.4715 20.958 9.96218 20.9832 9.8637V9.86353Z" fill="#8E714E"/>
<path fill-rule="evenodd" clip-rule="evenodd" d="M14.8768 20.7262C14.7506 20.6769 14.6598 20.6113 14.5488 20.447C14.5336 20.414 14.5084 20.2498 14.5084 20.1839C14.4983 19.6087 14.4983 17.9654 14.4983 16.8645C14.4983 15.9769 14.4529 15.2046 14.3368 14.6623C14.2005 14.0376 14.0038 13.6763 13.7514 13.6763C13.5293 13.6763 13.2316 14.1692 12.9843 14.8594C12.9792 14.8758 12.9389 14.9911 12.9439 14.8101C12.9439 14.6294 12.954 14.2679 12.9591 14.0212C12.9641 13.7911 12.9237 13.6763 12.9237 13.6763C12.7622 13.9391 12.3081 14.2842 12.1415 14.3334C12.0204 14.4158 11.9901 14.7937 12.1163 14.9252H12.1214C12.2575 15.0566 12.3484 15.2046 12.419 15.3526C12.4695 15.484 12.4645 15.6647 12.4645 15.8127C12.4695 17.0451 12.4695 18.935 12.4544 19.9704C12.4494 20.3812 12.414 20.5291 12.3232 20.5948L12.3333 20.5784C12.2626 20.6277 12.2071 20.6769 12.1213 20.7098C12.091 20.8085 12.091 21.3343 12.1213 21.4494C12.1768 21.4494 12.4695 21.4001 12.7118 21.4001C13.0449 21.4001 13.2165 21.4494 13.3022 21.4494C13.3376 21.318 13.3477 20.8248 13.3275 20.7098C13.2316 20.6934 13.1609 20.6607 13.0953 20.5948C13.0045 20.5289 12.9792 20.3812 12.9742 20.0361C12.9641 19.1649 12.9641 17.3245 12.9641 16.0756C12.9641 15.7304 12.9944 15.5661 13.0246 15.4674C13.1407 15.1389 13.3275 14.9088 13.494 14.9088C13.6555 14.9088 13.7614 15.0731 13.8422 15.2868C13.9532 15.5825 13.9886 16.0099 14.0037 16.322C14.0289 17.0287 14.0189 18.4255 14.0189 19.6417C14.0189 20.299 14.0037 20.4633 13.9281 20.5454C13.8927 20.5948 13.8019 20.6607 13.6959 20.6932C13.6605 20.8085 13.6707 21.318 13.6959 21.433C13.8422 21.433 14.0138 21.3837 14.2661 21.3837C14.579 21.3837 14.7809 21.433 14.8617 21.433C14.8869 21.3343 14.897 20.8578 14.8768 20.7262ZM16.2747 14.4488C16.0073 14.4488 15.8407 15.1225 15.8407 16.1741C15.8407 17.2424 15.9871 18.4749 16.4009 18.4749C16.4715 18.4749 16.6028 18.3762 16.6633 18.1461C16.7592 17.8505 16.8248 17.2588 16.8248 16.6342C16.8248 15.2703 16.6179 14.4486 16.2747 14.4486V14.4488ZM16.2394 21.7122C16.1385 21.7122 16.0678 21.8109 16.0224 21.8932C15.8104 22.3366 15.7145 22.764 15.7145 23.2737C15.7145 23.75 15.7701 24.1279 15.8912 24.4567C16.0375 24.8675 16.2394 25.0648 16.4967 25.0648C17.0115 25.0648 17.2386 24.1609 17.2386 23.2737C17.2386 22.6489 17.1427 22.2381 16.9459 22.0082C16.8046 21.8109 16.5473 21.7122 16.2394 21.7122ZM16.2747 25.9851C15.9669 25.9851 15.7448 25.7714 15.5531 25.2949C15.3663 24.8347 15.2856 24.1445 15.2856 23.6679C15.2856 23.5365 15.2957 23.1748 15.3865 22.8463C15.442 22.6489 15.5632 22.2711 15.8508 21.6301C15.8609 21.6138 15.8659 21.5974 15.8659 21.5642C15.8659 21.5315 15.8558 21.4985 15.8457 21.4823C15.6086 21.1865 15.5379 20.7098 15.5177 20.447V20.414C15.5127 20.3154 15.5026 20.2169 15.548 20.1182C15.5834 20.0361 15.6338 19.9375 15.6893 19.8226C15.7751 19.6581 15.8659 19.4773 15.9214 19.3293C15.9315 19.2965 15.9315 19.2638 15.9315 19.2308C15.9315 19.1979 15.9214 19.1649 15.9113 19.1487C15.5581 18.7707 15.3815 17.9161 15.3815 16.6342C15.3815 15.7962 15.4975 15.0402 15.7044 14.5637C15.8457 14.2021 16.199 13.7584 16.4312 13.7584H16.4463C16.6835 13.7748 16.8147 13.9391 17.0014 14.1528C17.1024 14.2679 17.1983 14.317 17.3295 14.317C17.5263 14.317 17.6121 14.1199 17.6827 13.89C17.6878 13.9227 17.6979 14.005 17.7029 14.2185C17.708 14.4322 17.6878 14.7444 17.6373 14.9745C17.5969 15.1552 17.5061 15.2868 17.4153 15.2868H17.39C17.2992 15.2539 17.2588 15.221 17.2588 15.221L17.2386 15.2539C17.2336 15.2868 17.2386 15.3196 17.2437 15.3689L17.2488 15.4019C17.2588 15.5497 17.279 15.9933 17.279 16.1085C17.279 17.4561 17.1125 18.0475 16.9358 18.4913C16.7642 18.9021 16.5675 19.1649 16.3454 19.2308C16.3403 19.2308 16.3202 19.2308 16.2747 19.2472C16.2495 19.2472 16.2142 19.2638 16.2091 19.2638H16.2041C16.1637 19.2965 16.0628 19.4609 16.0628 19.7401C16.0628 19.9866 16.1082 20.2826 16.3252 20.3319C16.3706 20.3483 16.416 20.3483 16.4665 20.3649C16.7542 20.4304 17.1125 20.5127 17.279 20.6934C17.5111 20.9727 17.6575 21.6465 17.6575 22.4518C17.6575 23.6681 17.3901 24.802 16.9459 25.5084C16.7289 25.8208 16.5119 25.9851 16.2747 25.9851ZM19.1513 14.5309C19.0453 14.5309 18.9494 14.6128 18.8788 14.7772C18.682 15.1716 18.581 15.9605 18.581 17.1108C18.581 19.2638 18.9141 20.7757 19.3885 20.7757C19.5298 20.7757 19.6408 20.6441 19.7367 20.3812C19.883 19.9866 19.9588 19.1979 19.9588 18.0968C19.9588 15.9605 19.6307 14.5307 19.1513 14.5307L19.1513 14.5309ZM19.2422 21.5644C18.3842 21.5644 18.0764 19.5102 18.0764 17.5875C18.0764 16.2399 18.2429 15.2046 18.576 14.465C18.8132 13.9884 19.0958 13.7256 19.3481 13.7256C20.0042 13.7256 20.4634 15.2539 20.4634 17.4561C20.4634 18.9514 20.2818 20.1346 19.9335 20.8578C19.767 21.2193 19.4793 21.5644 19.2421 21.5644H19.2422ZM10.249 14.5307C10.143 14.5307 10.0472 14.6128 9.97646 14.7772C9.77969 15.1716 9.67874 15.9605 9.67874 17.1108C9.67874 19.2638 10.0118 20.7757 10.4862 20.7757C10.6275 20.7757 10.7385 20.6441 10.8345 20.3812C10.9807 19.9866 11.0565 19.1979 11.0565 18.0968C11.0565 15.9605 10.7335 14.5307 10.249 14.5307ZM10.3399 21.5644C9.48192 21.5644 9.17409 19.5102 9.17409 17.5875C9.17409 16.2399 9.34061 15.2046 9.67366 14.465C9.91089 13.9884 10.1935 13.7256 10.4458 13.7256C11.1019 13.7256 11.5611 15.2539 11.5611 17.4561C11.5611 18.9514 11.3795 20.1346 11.0312 20.8578C10.8697 21.2193 10.5821 21.5644 10.3399 21.5644ZM4.57153 21.4001C4.56141 21.3509 4.5513 21.2029 4.55638 21.0222C4.55638 20.8906 4.5665 20.8085 4.57153 20.7757C4.67751 20.7262 4.73302 20.6769 4.79356 20.6277C4.89451 20.5454 4.93487 20.3649 4.9399 19.954C4.95511 18.968 4.95511 17.0944 4.95002 15.7962V15.7632C4.95002 15.6154 4.95002 15.4345 4.89451 15.3031C4.81374 15.1389 4.71787 14.9911 4.59171 14.8757C4.54632 14.8267 4.51602 14.7444 4.52105 14.6459C4.52105 14.5473 4.55135 14.4322 4.61697 14.3993C4.7835 14.35 5.21744 14.005 5.38905 13.7584C5.39917 13.7911 5.41432 13.89 5.41432 14.0214L5.40929 14.202C5.4042 14.3829 5.39917 14.5966 5.39917 14.8101C5.39917 14.8758 5.4194 14.9252 5.43953 14.9252C5.44965 14.9252 5.45976 14.9088 5.46983 14.8922C5.79281 14.0705 6.0855 13.7747 6.23687 13.7747C6.48422 13.7747 6.67601 14.1528 6.82236 14.9415C6.83242 14.9911 6.84254 15.0074 6.85769 15.0074C6.86775 15.0074 6.88284 14.9911 6.88793 14.9581C7.1857 14.2185 7.48347 13.7747 7.68024 13.7747C8.14957 13.7747 8.42716 14.9088 8.42716 16.8315C8.42716 17.3738 8.42716 18.0804 8.42213 18.7215C8.42213 19.2965 8.4171 19.8224 8.4171 20.2005C8.4171 20.2824 8.45237 20.5454 8.50788 20.5948C8.57854 20.7098 8.67446 20.7591 8.80062 20.8248H8.80566C8.81577 20.9399 8.79559 21.3671 8.77541 21.4494C8.74512 21.4494 8.69967 21.4494 8.64925 21.433C8.5215 21.4113 8.3936 21.4003 8.26567 21.4001C7.9528 21.4001 7.79131 21.4164 7.6348 21.4494C7.62479 21.318 7.6197 20.9235 7.6348 20.8248C7.72569 20.7757 7.77108 20.7262 7.82664 20.677C7.92759 20.5784 7.9528 20.4304 7.95789 20.0032C7.95789 19.691 7.97801 17.0287 7.94772 16.3878C7.91748 15.7304 7.76605 14.9581 7.43294 14.9581C7.30678 14.9581 7.11001 15.1225 6.91822 15.5988C6.90816 15.6318 6.89799 15.7139 6.89799 15.7632V15.7798C6.91823 16.1247 6.91822 16.5194 6.91822 17.1273V18.1955C6.91822 18.935 6.91314 19.6253 6.91822 20.151C6.91822 20.5127 6.98385 20.5948 7.03936 20.6607C7.06965 20.6769 7.08978 20.6934 7.11505 20.7098C7.16044 20.7428 7.20588 20.7757 7.27654 20.8248C7.28666 20.8907 7.28665 21.1043 7.27151 21.285C7.26642 21.3837 7.2563 21.4328 7.25127 21.4494C7.07972 21.433 6.90308 21.4164 6.64572 21.4164C6.57003 21.4164 6.43878 21.433 6.32776 21.433C6.23687 21.433 6.15112 21.4494 6.1007 21.4494C6.09562 21.4164 6.0855 21.3016 6.0855 21.1206C6.0855 20.9728 6.09562 20.8578 6.10573 20.8248C6.13094 20.8085 6.15112 20.7921 6.17639 20.7921C6.23687 20.7591 6.2874 20.7262 6.33783 20.6934C6.42369 20.6113 6.45393 20.4633 6.45896 20.1018C6.47411 19.2802 6.48926 16.9302 6.45393 16.3384C6.39339 15.3853 6.22687 14.9088 5.95933 14.9088C5.80293 14.9088 5.60605 15.1552 5.44462 15.5499C5.41935 15.6154 5.39917 15.7796 5.39917 15.9276V16.8972C5.39917 18.0804 5.39917 19.5596 5.4042 20.2005C5.40929 20.3975 5.42941 20.6277 5.54551 20.7098C5.57078 20.7262 5.61114 20.7591 5.66162 20.7757L5.7524 20.8248C5.76257 20.9235 5.75748 21.318 5.7373 21.4494C5.68683 21.4494 5.62629 21.433 5.55558 21.433C5.44965 21.4164 5.31337 21.4001 5.16199 21.4001C4.98535 21.4001 4.85919 21.4164 4.75823 21.433C4.68758 21.4001 4.63207 21.4001 4.57153 21.4001Z" fill="#442D22"/>
<path fill-rule="evenodd" clip-rule="evenodd" d="M1.91703 25.3442L1.71014 25.114C1.71014 25.114 1.73541 21.6795 1.35686 21.433C1.10459 20.4797 1.39733 -18.994 2.30569 21.3014C2.30569 21.3014 1.99277 21.8107 1.93726 22.6819C1.87667 23.5365 1.91703 25.3442 1.91703 25.3442Z" fill="white"/>
<path fill-rule="evenodd" clip-rule="evenodd" d="M1.91703 25.3442L1.71014 25.114C1.71014 25.114 1.73541 21.6795 1.35686 21.433C1.10459 20.4797 1.39733 -18.994 2.30569 21.3014C2.30569 21.3014 1.99277 21.8107 1.93726 22.6819C1.87667 23.5365 1.91703 25.3442 1.91703 25.3442Z" fill="#A6A385"/>
<path fill-rule="evenodd" clip-rule="evenodd" d="M2.02804 22.0245C2.02804 22.0245 3.83983 18.146 3.41584 10.077C3.00711 4.21041 2.04318 2.28765 1.9372 1.54808C1.82115 1.0222 1.71008 0.102051 1.71008 0.102051L1.78583 16.4204C1.78583 16.437 1.62936 21.4164 2.02809 22.0247" fill="white"/>
<path fill-rule="evenodd" clip-rule="evenodd" d="M2.02804 22.0245C2.02804 22.0245 3.83983 18.146 3.41584 10.077C3.00711 4.21041 2.04318 2.28765 1.9372 1.54808C1.82115 1.0222 1.71008 0.102051 1.71008 0.102051L1.78583 16.4204C1.78583 16.437 1.62936 21.4164 2.02809 22.0247" fill="#499D4A"/>
<path fill-rule="evenodd" clip-rule="evenodd" d="M1.60415 22.238C1.60415 22.238 -0.0966304 18.4582 0.00432273 11.8027C0.10019 5.14709 1.30129 1.87679 1.53344 1.2852C1.68487 0.759325 1.6899 0.56201 1.70002 0.0361328C1.806 0.775708 1.78582 11.0961 1.80092 12.3121C1.84631 16.9956 1.7202 21.3508 1.60415 22.238Z" fill="white"/>
<path fill-rule="evenodd" clip-rule="evenodd" d="M1.60415 22.238C1.60415 22.238 -0.0966304 18.4582 0.00432273 11.8027C0.10019 5.14709 1.30129 1.87679 1.53344 1.2852C1.68487 0.759325 1.6899 0.56201 1.70002 0.0361328C1.806 0.775708 1.78582 11.0961 1.80092 12.3121C1.84631 16.9956 1.7202 21.3508 1.60415 22.238Z" fill="#58AA50"/>
</g>
<defs>
<clipPath id="clip0">
<rect width="28" height="26" fill="white"/>
</clipPath>
</defs>
</svg>
