<svg width="26" height="30" viewBox="0 0 26 30" fill="none" xmlns="http://www.w3.org/2000/svg">
<path d="M0 26.1318C0 28.2683 1.50099 30 3.35248 30H22.6474C24.4992 30 26 28.2681 26 26.1318V3.86836C26 1.73168 24.499 0 22.6475 0H3.35258C1.50079 0 0 1.73191 0 3.86824V26.1316V26.1318Z" fill="#563D7C"/>
<path d="M10.7816 13.2701V9.02168H14.0226C14.3313 9.02168 14.6289 9.05133 14.9155 9.11074C15.2021 9.17004 15.4557 9.27598 15.6762 9.42867C15.8966 9.58137 16.073 9.79336 16.2054 10.0646C16.3376 10.3361 16.4038 10.6838 16.4038 11.1076C16.4038 11.8709 16.2054 12.4221 15.8085 12.7613C15.4117 13.1005 14.9046 13.2701 14.2872 13.2701H10.7816ZM7.32007 5.91797V24.082H14.9486C15.6542 24.082 16.3414 23.9803 17.0101 23.7768C17.6789 23.5732 18.2742 23.2595 18.796 22.8355C19.3177 22.4115 19.733 21.8645 20.0417 21.1946C20.3504 20.5247 20.5047 19.7318 20.5047 18.816C20.5047 17.6796 20.2658 16.7087 19.7882 15.9032C19.3104 15.0975 18.5865 14.5336 17.6164 14.2113C18.3219 13.8213 18.8548 13.3209 19.215 12.7104C19.575 12.0998 19.7551 11.3367 19.7551 10.4208C19.7551 9.57281 19.6338 8.86055 19.3913 8.28387C19.1487 7.70731 18.807 7.24512 18.366 6.89742C17.9251 6.54973 17.396 6.29953 16.7786 6.14695C16.1613 5.99426 15.4778 5.91797 14.7281 5.91797H7.32007ZM10.7816 20.9783V15.9921H14.5517C15.3014 15.9921 15.904 16.1913 16.3597 16.59C16.8153 16.9886 17.0433 17.6542 17.0433 18.587C17.0433 19.062 16.9734 19.452 16.8337 19.7572C16.6941 20.0625 16.5067 20.3043 16.2715 20.4823C16.0364 20.6604 15.7644 20.7875 15.4557 20.8639C15.147 20.9401 14.8237 20.9783 14.4856 20.9783H10.7816Z" fill="white"/>
</svg>
