<svg width="28" height="28" viewBox="0 0 28 28" fill="none" xmlns="http://www.w3.org/2000/svg">
<g clip-path="url(#clip0)">
<path d="M16.4876 0C16.2852 0 16.0971 0.0435922 15.9236 0.101678C16.2924 0.348408 16.4948 0.675075 16.596 1.04533C16.6033 1.09617 16.6178 1.13252 16.625 1.18325C16.6322 1.22684 16.6394 1.27043 16.6394 1.31391C16.6684 1.95275 16.4732 2.03258 16.3357 2.41009C16.126 2.89652 16.1839 3.41918 16.437 3.84017C16.4586 3.89101 16.4876 3.9491 16.5237 3.99994C16.249 2.16325 17.7747 1.88742 18.0567 1.31391C18.0784 0.813098 17.6662 0.479075 17.3408 0.246839C17.0299 0.0579765 16.7479 0 16.4876 0ZM18.787 0.413741C18.7581 0.580753 18.7798 0.537161 18.7726 0.624345C18.7653 0.682431 18.7653 0.755012 18.7581 0.813098C18.7437 0.871075 18.7293 0.929161 18.7075 0.987247C18.6931 1.04544 18.6714 1.10342 18.6497 1.16151C18.6208 1.21959 18.5991 1.27043 18.5701 1.32841C18.5485 1.35751 18.534 1.3866 18.5123 1.41559L18.4689 1.48093C18.4328 1.53176 18.3966 1.5826 18.3604 1.62609C18.317 1.66968 18.2809 1.72052 18.2303 1.75675V1.764C18.1869 1.80035 18.1436 1.84394 18.0929 1.88017C17.9411 1.99635 17.7675 2.08342 17.6084 2.19235C17.5578 2.22858 17.5072 2.25768 17.4638 2.30127C17.4131 2.33751 17.3697 2.37374 17.3264 2.41744C17.2758 2.46093 17.2397 2.50452 17.1963 2.55536C17.1602 2.59884 17.1167 2.64979 17.0878 2.70052C17.0517 2.75136 17.0156 2.80209 16.9866 2.85293C16.9576 2.91112 16.9359 2.96185 16.907 3.01983C16.8853 3.07802 16.8636 3.12886 16.8492 3.18684C16.8274 3.25217 16.813 3.31026 16.7986 3.36835C16.7913 3.39744 16.7913 3.43368 16.7841 3.46278C16.7768 3.49176 16.7768 3.52086 16.7697 3.54985C16.7697 3.60794 16.7624 3.67327 16.7624 3.73136C16.7624 3.77495 16.7624 3.81843 16.7697 3.86202C16.7697 3.92011 16.7769 3.9782 16.7913 4.04353C16.7986 4.10162 16.813 4.15959 16.8274 4.21768C16.8492 4.27587 16.8636 4.33385 16.8854 4.39194C16.8997 4.42817 16.9215 4.46452 16.9359 4.49362L15.2729 3.84753C14.9951 3.76812 14.7154 3.69548 14.4341 3.62968L13.9786 3.52086C13.5447 3.43368 13.1036 3.36835 12.6626 3.32486C12.6481 3.32486 12.6408 3.31751 12.6265 3.31751C12.1963 3.27402 11.7643 3.25221 11.332 3.25217C11.0138 3.25217 10.6957 3.26667 10.3848 3.28841C9.9436 3.31751 9.5026 3.37559 9.06138 3.44817C8.95299 3.46278 8.84449 3.48452 8.7361 3.50637C8.51188 3.54985 8.29499 3.60069 8.08532 3.65153L7.75982 3.7386C7.65143 3.7822 7.55015 3.83304 7.44898 3.87652L7.21032 3.98544C7.19588 3.99269 7.18133 3.99269 7.17423 3.99994C7.10182 4.03617 7.03674 4.06527 6.97166 4.10151C6.95424 4.10745 6.93731 4.11476 6.92102 4.12336C6.84151 4.15959 6.76199 4.20318 6.69691 4.23953C6.64627 4.26127 6.59563 4.29026 6.55232 4.312C6.53133 4.32535 6.50961 4.33749 6.48724 4.34835C6.42216 4.38458 6.35709 4.42093 6.29912 4.45727C6.23415 4.49351 6.17629 4.52985 6.12565 4.5662C6.07501 4.60243 6.02448 4.63153 5.98105 4.66776C5.97383 4.67501 5.96662 4.67501 5.95929 4.68226C5.91598 4.71136 5.86534 4.74759 5.82191 4.78394L5.80748 4.79843L5.69909 4.88551C5.68454 4.89286 5.6701 4.90736 5.65566 4.9146C5.61957 4.94359 5.58337 4.97994 5.54716 5.00904C5.53994 5.02342 5.52551 5.03078 5.51829 5.03802C5.47487 5.08162 5.43144 5.11785 5.38813 5.16144C5.3808 5.16144 5.3808 5.16869 5.37369 5.17594C5.33027 5.21217 5.28685 5.25576 5.24354 5.29936C5.23621 5.3066 5.23621 5.31385 5.22899 5.31385C5.1929 5.35009 5.1568 5.38643 5.1206 5.43002C5.10616 5.44452 5.08451 5.45901 5.06996 5.47351C5.03387 5.5171 4.99044 5.56069 4.94702 5.60417C4.9398 5.61878 4.92537 5.62602 4.91804 5.64052C4.86029 5.6986 4.80965 5.75669 4.75179 5.81478L4.73013 5.83652C4.61441 5.95994 4.49148 6.08336 4.36132 6.19228C4.2331 6.30715 4.09783 6.41383 3.9563 6.5117C3.81609 6.61041 3.67134 6.70246 3.52252 6.78753C3.37494 6.86878 3.22284 6.94148 3.06698 7.00527C2.91315 7.07089 2.75627 7.12905 2.59688 7.17953C2.29326 7.24486 1.9822 7.36828 1.71477 7.39002C1.6568 7.39002 1.59184 7.40452 1.53398 7.41176C1.4689 7.42637 1.41104 7.44086 1.35318 7.45536L1.1796 7.52069C1.12174 7.54243 1.06399 7.57153 1.00613 7.60052C0.955492 7.63675 0.897633 7.66585 0.846992 7.7022C0.796351 7.73843 0.74582 7.78202 0.702398 7.82562C0.651758 7.86185 0.601117 7.91269 0.557805 7.95628C0.514383 8.00712 0.470961 8.05071 0.434867 8.10144C0.398773 8.15953 0.355352 8.21037 0.326367 8.26835C0.290273 8.31929 0.25407 8.37727 0.225086 8.43536C0.196211 8.50069 0.167336 8.55878 0.14557 8.62422C0.122762 8.68671 0.101066 8.7496 0.0804922 8.81286C0.0660547 8.87095 0.0516172 8.92904 0.0443984 8.98712C0.0443984 8.99437 0.0370703 9.00162 0.0370703 9.00886C0.0226328 9.0742 0.0226328 9.16138 0.0154141 9.20486C0.00819531 9.2557 0.000976562 9.29929 0.000976562 9.35002C0.000976562 9.37912 0.000976562 9.41536 0.00819531 9.44446C0.0154141 9.49529 0.0226328 9.53889 0.0371797 9.58237C0.0516172 9.62596 0.0660547 9.66944 0.0878203 9.71304V9.72028C0.109477 9.76388 0.138352 9.80747 0.167336 9.85095C0.196211 9.89454 0.225195 9.93813 0.261398 9.98162C0.297492 10.0179 0.340805 10.0616 0.384227 10.0978C0.427648 10.1414 0.47107 10.1776 0.521601 10.214C0.69518 10.3664 0.738601 10.4172 0.962711 10.5334C0.998804 10.5551 1.03501 10.5696 1.07843 10.5915C1.08565 10.5915 1.09287 10.5987 1.10009 10.5987C1.10009 10.6132 1.10009 10.6205 1.10741 10.6349C1.11463 10.6931 1.12907 10.7511 1.14351 10.8092C1.15795 10.8745 1.1796 10.9326 1.20137 10.9835C1.22302 11.0271 1.23746 11.0705 1.25923 11.1141C1.26645 11.1286 1.27366 11.1432 1.28088 11.1504C1.30987 11.2086 1.33885 11.2593 1.36773 11.3101L1.47612 11.4625C1.51221 11.5061 1.55563 11.557 1.59905 11.6006C1.64248 11.644 1.6859 11.6804 1.73643 11.7239C1.73643 11.7239 1.74376 11.7312 1.75087 11.7312C1.79429 11.7675 1.83771 11.8037 1.88102 11.8328C1.93166 11.869 1.9823 11.8981 2.04016 11.9272C2.0908 11.9562 2.14866 11.9853 2.20641 12.0071C2.24984 12.0288 2.30048 12.0433 2.35112 12.0579C2.35834 12.0651 2.36555 12.0651 2.37999 12.0724C2.40898 12.0796 2.44507 12.0869 2.47405 12.0941C2.45229 12.4861 2.44507 12.8564 2.50293 12.9871C2.56801 13.1322 2.88618 12.6895 3.20435 12.1813C3.16104 12.6821 3.13216 13.2701 3.20435 13.4444C3.28387 13.6259 3.71776 13.0596 4.09379 12.4353C9.22063 11.2448 13.899 14.8019 14.3908 19.8254C14.2967 19.0414 13.3351 18.6058 12.894 18.7148C12.677 19.2519 12.3083 19.9416 11.7154 20.3698C11.7659 19.8908 11.7442 19.3971 11.643 18.918C11.4839 19.5858 11.173 20.2102 10.7463 20.7473C10.0594 20.7982 9.37255 20.4643 9.01085 19.9633C8.98198 19.9416 8.97476 19.898 8.9531 19.8689C8.93133 19.8182 8.90968 19.7673 8.89513 19.7165C8.87407 19.6678 8.85951 19.6166 8.85182 19.5641C8.8446 19.5133 8.8446 19.4624 8.8446 19.4043V19.2955C8.85182 19.2447 8.86626 19.1938 8.88069 19.143C8.89513 19.0923 8.90968 19.0414 8.93133 18.9906C8.96032 18.9397 8.98198 18.8889 9.01807 18.8382C9.14101 18.4897 9.14101 18.2066 8.9169 18.0396C8.87348 18.0111 8.82748 17.9869 8.77952 17.9671C8.75054 17.9597 8.71444 17.9451 8.68546 17.938C8.6638 17.9307 8.64937 17.9234 8.6276 17.9162C8.57707 17.9017 8.52643 17.8872 8.47579 17.8799C8.42645 17.8656 8.37535 17.8582 8.32398 17.8581C8.27333 17.8508 8.21548 17.8436 8.16483 17.8436C8.12874 17.8436 8.09265 17.8508 8.05634 17.8508C7.99859 17.8508 7.94794 17.8582 7.8973 17.8727C7.84666 17.8799 7.79602 17.8872 7.74549 17.9017C7.69485 17.9162 7.64421 17.9308 7.59357 17.9525C7.54304 17.9742 7.49951 17.9961 7.44898 18.0178C7.40555 18.0396 7.36224 18.0687 7.3116 18.0904C5.62679 19.1939 6.63183 21.7782 7.78159 22.5259C7.34769 22.6058 6.90659 22.7002 6.78376 22.7945L6.76932 22.809C7.08016 22.9979 7.40555 23.1575 7.74549 23.2955C8.20826 23.4479 8.70001 23.5858 8.9169 23.6439V23.6511C9.51599 23.7744 10.1286 23.8184 10.7391 23.7818C13.9425 23.5567 16.5673 21.1104 17.0446 17.8872C17.059 17.9525 17.0735 18.0106 17.088 18.0759C17.1096 18.2066 17.1386 18.3445 17.1531 18.4824V18.4898C17.1675 18.5551 17.1747 18.6204 17.182 18.6785V18.7075C17.1893 18.7728 17.1965 18.8382 17.1965 18.8963C17.2037 18.9761 17.2109 19.0559 17.2109 19.1359V19.2519C17.2109 19.2883 17.2181 19.3319 17.2181 19.3681C17.2181 19.4117 17.2109 19.4553 17.2109 19.4988V19.6004C17.2109 19.6513 17.2037 19.6949 17.2037 19.7456C17.2037 19.7747 17.2037 19.8037 17.1964 19.84C17.1964 19.8908 17.1891 19.9416 17.1891 19.9997C17.1819 20.0214 17.1819 20.0433 17.1819 20.065C17.1747 20.1231 17.1675 20.1739 17.1602 20.2319C17.1602 20.2538 17.1602 20.2755 17.1529 20.2974C17.1457 20.3698 17.1313 20.4353 17.1241 20.5079V20.5224C17.1096 20.5877 17.0951 20.6604 17.0806 20.7257V20.7474L17.0372 20.9435C17.0372 20.9507 17.03 20.9652 17.03 20.9724C17.0156 21.0378 17.0011 21.1031 16.9794 21.1686V21.1903C16.9577 21.2629 16.9361 21.3282 16.9216 21.3935C16.9143 21.4008 16.9143 21.408 16.9143 21.408L16.8492 21.6258C16.8203 21.6985 16.7987 21.7638 16.7697 21.8364C16.7408 21.9088 16.7191 21.9815 16.6902 22.0469C16.6612 22.1195 16.6322 22.1848 16.6034 22.2574H16.5961C16.5672 22.3227 16.5383 22.3953 16.5021 22.4606C16.4962 22.4781 16.4889 22.4951 16.4804 22.5115C16.4732 22.5188 16.4732 22.5259 16.466 22.5333C15.996 23.4842 15.3018 24.319 14.4341 24.9724C14.3761 25.0086 14.3184 25.0523 14.2605 25.0958C14.2461 25.1103 14.2244 25.1176 14.2099 25.132C14.1592 25.1684 14.1087 25.2047 14.0508 25.241L14.0725 25.2845H14.0797L14.3835 25.241H14.3907C14.5788 25.212 14.7667 25.1756 14.9547 25.1394C15.0054 25.1321 15.0632 25.1176 15.1138 25.1032C15.15 25.0958 15.1788 25.0886 15.215 25.0813C15.2657 25.0741 15.3163 25.0596 15.3668 25.0522C15.4103 25.0377 15.4537 25.0305 15.497 25.016C16.2202 24.8417 16.9216 24.6021 17.5941 24.319C16.4443 25.8943 14.9041 27.1647 13.1036 27.9996C13.9351 27.9415 14.7667 27.8036 15.5694 27.5713C18.4835 26.7074 20.9348 24.7401 22.4027 22.0905C22.1047 23.7712 21.4405 25.3652 20.4575 26.7582C21.1583 26.2941 21.8058 25.7537 22.3882 25.1466C24.008 23.448 25.0709 21.2919 25.4325 18.9761C25.6792 20.125 25.7499 21.3049 25.6422 22.4752C30.863 15.1649 26.0761 7.58613 24.0731 5.58979C24.0658 5.57529 24.0587 5.56805 24.0587 5.55355C24.0513 5.5608 24.0513 5.5608 24.0513 5.56805C24.0513 5.56069 24.0513 5.56069 24.0441 5.55355C24.0441 5.64063 24.0369 5.7277 24.0297 5.81489C24.008 5.98179 23.9863 6.14155 23.9574 6.30132C23.9213 6.46097 23.8779 6.62063 23.8344 6.78039C23.7829 6.93754 23.725 7.09249 23.6609 7.24486C23.5958 7.39013 23.5235 7.54254 23.444 7.68781C23.3645 7.82573 23.2777 7.97089 23.1837 8.10155C23.0907 8.23656 22.9918 8.36735 22.8873 8.49355C22.7786 8.62422 22.663 8.74039 22.5473 8.85656C22.4792 8.9191 22.4093 8.97959 22.3376 9.03796C22.2797 9.0888 22.2291 9.13239 22.1713 9.18323C22.0411 9.2848 21.911 9.37923 21.7664 9.46631C21.629 9.55338 21.4843 9.64056 21.3398 9.71315C21.1878 9.78573 21.036 9.85106 20.8842 9.91639C20.73 9.9748 20.5732 10.0257 20.4142 10.0688C20.2543 10.112 20.0926 10.1483 19.9296 10.1777C19.7634 10.2068 19.5971 10.2213 19.438 10.2358C19.3223 10.2431 19.2066 10.2503 19.0908 10.2503C18.9246 10.2503 18.7582 10.2358 18.5992 10.2213C18.4328 10.2067 18.2665 10.185 18.1075 10.1486C17.9412 10.1196 17.7821 10.0762 17.6229 10.0253H17.6157C17.7748 10.0107 17.934 9.99622 18.093 9.96712C18.2562 9.93855 18.4178 9.90224 18.5776 9.85831C18.7365 9.81516 18.8933 9.7643 19.0474 9.7059C19.2066 9.6477 19.3584 9.57523 19.5031 9.50254C19.6549 9.43007 19.7923 9.35013 19.9369 9.26306C20.0742 9.16863 20.2117 9.0742 20.3419 8.97263C20.4714 8.87152 20.5946 8.76242 20.7106 8.64596C20.8335 8.53703 20.942 8.41373 21.0505 8.2902C21.1562 8.16309 21.2575 8.03234 21.3541 7.8982C21.3686 7.87645 21.3831 7.84747 21.3976 7.82573C21.4699 7.70955 21.5422 7.59338 21.6072 7.47721C21.6868 7.33327 21.7592 7.18548 21.8242 7.03437C21.8896 6.88247 21.9474 6.72746 21.9977 6.5699C22.0483 6.41727 22.0846 6.25762 22.1206 6.09796C22.1496 5.93106 22.1786 5.77129 22.1929 5.61153C22.2074 5.44463 22.2219 5.27773 22.2219 5.11796C22.2219 5.00179 22.2147 4.88562 22.2075 4.76944C22.1931 4.60254 22.1714 4.44278 22.1495 4.28301C22.1211 4.11928 22.085 3.95699 22.0412 3.79669C21.9905 3.64428 21.94 3.48452 21.8821 3.33211C21.8241 3.1797 21.7519 3.02718 21.6796 2.88202C21.6 2.73686 21.5205 2.59159 21.4338 2.45379C21.3414 2.31772 21.245 2.18454 21.1445 2.05443C21.0356 1.92921 20.9247 1.80578 20.8119 1.68417C20.7509 1.62191 20.6882 1.56142 20.6238 1.50278C20.2999 1.25018 19.9645 1.01275 19.6187 0.791247C19.572 0.764205 19.5237 0.740005 19.4741 0.718776C19.2356 0.566259 19.0114 0.486431 18.7872 0.413851L18.787 0.413741Z" fill="#E0234E"/>
</g>
<defs>
<clipPath id="clip0">
<rect width="28" height="28" fill="white"/>
</clipPath>
</defs>
</svg>
